<?xml version="1.0" encoding="UTF-8"?>
<svg id="Camada_2" data-name="Camada 2" xmlns="http://www.w3.org/2000/svg" viewBox="0 0 25.94 26.33">
  <defs>
    <style>
      .cls-1 {
        fill: #d80f0f;
      }
    </style>
  </defs>
  <g id="Camada_1-2" data-name="Camada 1">
    <path class="cls-1" d="M25.94,13.14c0,7.28-5.81,13.19-12.97,13.19S0,20.42,0,13.14,5.23.56,11.88,0l-1.21,2.57c-.76,1.62-1.98,2.98-3.5,3.91l-3.43,2.1c-.31.19-.31.65,0,.84l3.43,2.1c1.52.93,2.74,2.29,3.5,3.91l1.85,3.94c.18.38.72.38.9,0l1.85-3.94c.76-1.62,1.98-2.98,3.5-3.91l3.43-2.1c.31-.19.31-.65,0-.84l-3.43-2.1c-1.52-.93-2.74-2.29-3.5-3.91l-1.21-2.57c6.65.56,11.88,6.23,11.88,13.14Z"/>
  </g>
</svg>