<?xml version="1.0" encoding="UTF-8"?>
<svg id="Camada_2" data-name="Camada 2" xmlns="http://www.w3.org/2000/svg" viewBox="0 0 486.62 178.15">
  <g id="Camada_1-2" data-name="Camada 1">
    <g>
      <path d="M147.27,125.67c0,15.55-5.66,27.58-16.98,36.09-11.32,8.51-27.04,12.76-47.16,12.76H0V3.31h76.05c20.28,0,35.63,3.63,46.04,10.88,10.41,7.25,15.62,17.96,15.62,32.14,0,11.44-4.88,19.62-7.84,24.61-4.39,7.4-9.53,12.36-13.04,15.3,3.82.89,12.54,3.49,19.88,11.31,10.07,10.74,10.55,23.77,10.55,28.13ZM102.7,51.19c0-7.7-2.38-13.16-7.13-16.4-4.76-3.24-11.81-4.86-21.16-4.86h-39.62v42.41h39.85c9.83,0,16.96-1.76,21.4-5.29,4.44-3.52,6.66-8.81,6.66-15.86ZM112.37,122.88c0-16.04-11.16-24.06-33.49-24.06h-44.1v49.09h45.39c11.16,0,19.32-2.09,24.47-6.26,5.15-4.17,7.72-10.43,7.72-18.77Z"/>
      <path d="M396.55,149.07v27.71h-127.71V5.57h35.85v143.5h91.86Z"/>
      <path d="M431.21,33.21v143.5h-35.85V33.21h-55.29V5.5h146.54v27.71h-55.41Z"/>
      <path d="M284.39,88.92c0,49.28-39.29,89.23-87.74,89.23s-87.75-39.95-87.75-89.23S144.26,3.8,189.28,0l-8.19,17.41c-5.15,10.94-13.37,20.14-23.68,26.46l-23.21,14.22c-2.13,1.31-2.13,4.4,0,5.69l23.21,14.24c10.3,6.31,18.53,15.5,23.68,26.45l12.53,26.63c1.2,2.56,4.85,2.56,6.06,0l12.53-26.63c5.15-10.94,13.37-20.14,23.68-26.45l23.21-14.24c2.13-1.29,2.13-4.39,0-5.69l-23.21-14.22c-10.3-6.32-18.53-15.52-23.68-26.46L204.02,0c45.01,3.8,80.37,42.16,80.37,88.92Z"/>
    </g>
  </g>
</svg>